<svg xmlns="http://www.w3.org/2000/svg" viewBox="0 0 64 64">
  <rect width="64" height="64" rx="14" fill="#07706d"/>
  <path d="M32 8c-1 1-3.4 4.1-6.4 14.4-.1.2-.3.4-.5.4-.2 0-.2 0-.4-.2-1.9-1.4-10-6.7-23.7-1.8-.3.1-.3.3-.5.1-.7 0-.7-1.9-.8-5.2-.2-34.6.6-57.2 35.1-.2.3-.3.2-.7.5-.5.5 5.6-3.9 25.7-17.1 43.3-15.7.4 0 .5 0 .5.1.1.7-6.3 2.9-34.4 18.3-40.8 62.3-.1.4-.4.5-.6.7-.2 3.9-6.9 19.9-33 42-42.3.3-.1.6-.3.4-.6-4.3 5.3-21.1 28-17.5 67.4 0 .4 0 .6.4.7.1 2.3-7.5 12-36.8 28.3-54.5.3-.3.7-.1.6.3-1 6.7-5.9 39.7-.2 65.5.1.4 0 .7.3.7-.1.9-9.7 5-48.3 13.8-60.1.1-.1.2-.1.3-.1 0 0 .1 0 .3 0l1.9 23.6h-3.2l2.5 31.6h-3.1l1.6 31.2c-6.5 1.9-13.4 3-20.5 3C14.9 56 8 49.1 8 40.6 8 23.7 21.9 8.4 32 8z" fill="#fff" opacity="0.95" transform="translate(0,-4) scale(0.9)"/>
  <circle cx="47" cy="45" r="11" fill="#85bd48"/>
  <path d="M42.5 45.2l3.2 3.2 6-6.4" stroke="#fff" stroke-width="2.6" fill="none" stroke-linecap="round" stroke-linejoin="round"/>
</svg>
